     <svg width="100" height="100" viewBox="0 0 24 24" fill="none" xmlns="http://www.w3.org/2000/svg">
            <path d="M7 4H3V2H7V4ZM21 4H8V2H21V4ZM7 6H21L20 14H8L7 6ZM6 16H22V18H6V16ZM6 20C5.44772 20 5 20.4477 5 21C5 21.5523 5.44772 22 6 22C6.55228 22 7 21.5523 7 21C7 20.4477 6.55228 20 6 20ZM18 20C17.4477 20 17 20.4477 17 21C17 21.5523 17.4477 22 18 22C18.5523 22 19 21.5523 19 21C19 20.4477 18.5523 20 18 20Z" fill="black"/>
            <path d="M7 4H3V2H7V4ZM21 4H8V2H21V4ZM7 6H21L20 14H8L7 6ZM6 16H22V18H6V16ZM6 20C5.44772 20 5 20.4477 5 21C5 21.5523 5.44772 22 6 22C6.55228 22 7 21.5523 7 21C7 20.4477 6.55228 20 6 20ZM18 20C17.4477 20 17 20.4477 17 21C17 21.5523 17.4477 22 18 22C18.5523 22 19 21.5523 19 21C19 20.4477 18.5523 20 18 20Z" fill="black"/>
            <path d="M7 4H3V2H7V4ZM21 4H8V2H21V4ZM7 6H21L20 14H8L7 6ZM6 16H22V18H6V16ZM6 20C5.44772 20 5 20.4477 5 21C5 21.5523 5.44772 22 6 22C6.55228 22 7 21.5523 7 21C7 20.4477 6.55228 20 6 20ZM18 20C17.4477 20 17 20.4477 17 21C17 21.5523 17.4477 22 18 22C18.5523 22 19 21.5523 19 21C19 20.4477 18.5523 20 18 20Z" fill="black"/>
          </svg>